<svg width="74" height="100" viewBox="0 0 74 100" fill="none" xmlns="http://www.w3.org/2000/svg">
<path d="M0.612797 5.99896C0.612797 4.99598 0.947144 4.32738 1.50436 4.04877C1.95012 3.82589 2.45161 3.8816 3.06454 4.21593L65.3607 39.5431C66.698 40.3232 67.8124 42.3849 67.8124 44.168V97.2145C67.8124 98.1617 67.478 98.8303 66.9765 99.1647C66.5307 99.4433 65.9736 99.3875 65.3607 99.0532L3.17592 63.7818C1.56001 62.8903 0.612797 61.2186 0.612797 59.4355V6.11043V5.99896ZM5.1818 60.7171L64.1904 94.2055C64.1904 94.2055 64.1904 94.2055 64.1904 94.094V44.1122C64.1904 43.3878 63.7448 42.6077 63.299 42.3848L4.29041 8.89648V58.9898C4.29041 59.7142 4.79175 60.4942 5.1818 60.7171Z" fill="#FF4F4F"/>
<path d="M6.90746 0.871708L1.55811 3.99208C2.00388 3.76919 2.50536 3.82491 3.11829 4.15923L65.4146 39.4865C66.7519 40.2666 67.8664 42.3282 67.8664 44.1113V97.1578C67.8664 98.105 67.5319 98.7737 67.0304 99.1081L72.4355 95.9319C72.937 95.6533 73.2712 94.9847 73.2712 93.9817V40.9352C73.2712 39.1521 72.1567 37.0904 70.8194 36.366L8.52325 1.03887C7.91032 0.704538 7.35323 0.648793 6.90746 0.927399V0.871708Z" fill="white"/>
<path d="M20.173 36.5351C19.9502 34.8635 18.6127 33.1361 17.2754 32.6346C15.9381 32.1331 15.0467 33.0804 15.2696 34.752C15.4924 36.4237 16.8295 38.151 18.1668 38.6525C19.0026 38.9311 19.6714 38.6525 20.0057 38.0395C20.2286 37.6495 20.2845 37.148 20.173 36.4794V36.5351ZM46.6406 71.2494C46.8634 72.921 48.1448 74.6483 49.5378 75.1498C50.8751 75.6513 51.7669 74.704 51.544 73.0324C51.3212 71.3608 49.9837 69.6334 48.6464 69.1319C47.9221 68.8533 47.3091 69.0205 46.9191 69.522C46.6405 69.9121 46.5291 70.525 46.6406 71.2494ZM44.5231 56.4832C45.8604 56.9847 46.7519 56.0375 46.529 54.3659C46.3061 52.6942 45.0244 50.9112 43.6314 50.4654C42.2941 49.9639 41.4026 50.9111 41.6255 52.5828C41.6255 52.6942 41.6256 52.8056 41.6813 52.9171C42.0156 54.4773 43.2415 56.0375 44.5231 56.4832ZM32.6545 45.6734C32.0973 45.2834 31.5402 44.9489 30.9829 44.7261C28.2526 43.7231 26.4694 45.6734 26.9708 48.9609C27.1937 50.354 27.7511 51.8026 28.5312 53.0842C29.6456 54.8116 31.1501 56.2604 32.7103 56.8176C35.4406 57.8206 37.2235 55.926 36.722 52.5828C36.722 52.3042 36.6108 52.0813 36.5551 51.8027C35.9978 49.4067 34.4376 47.0664 32.6545 45.6734ZM34.3261 41.1599C35.6634 41.6614 36.5548 40.7142 36.332 39.0426C36.1091 37.3709 34.8277 35.6436 33.4347 35.1421C32.0974 34.6406 31.2056 35.5878 31.4285 37.2595C31.5956 38.5968 32.4314 39.9341 33.4901 40.7142C33.7687 40.9371 34.0475 41.1042 34.3261 41.1599ZM4.29248 8.95312L63.3011 42.4416C63.6912 42.6644 64.1925 43.5003 64.1925 44.1689V94.1507C64.1925 94.1507 64.1925 94.1507 64.1925 94.2621L5.18387 60.8295C4.79383 60.6066 4.29248 59.7708 4.29248 59.1021V9.0089V8.95312ZM23.1819 60.1051C24.5192 60.6066 25.4106 59.6593 25.1877 57.9877C24.9648 56.3161 23.6278 54.533 22.2905 54.0873C20.9532 53.5858 20.0614 54.5331 20.2842 56.2047C20.5071 57.8763 21.7888 59.6037 23.1819 60.1051Z" fill="white"/>
<path d="M17.2729 32.6332C15.9356 32.1317 15.0442 33.079 15.2671 34.7507C15.4899 36.4223 16.827 38.1496 18.1643 38.6511C19.0001 38.9297 19.6689 38.6511 20.0032 38.0382C20.2261 37.6481 20.282 37.1467 20.1705 36.478C19.9477 34.8064 18.666 33.079 17.2729 32.5775V32.6332Z" fill="white"/>
<path d="M22.2894 54.0297C20.9521 53.5282 20.0603 54.4754 20.2832 56.1471C20.506 57.8187 21.7877 59.546 23.1808 60.0475C24.5181 60.549 25.4095 59.6018 25.1866 57.9302C24.9638 56.2586 23.6267 54.4755 22.2894 54.0297Z" fill="white"/>
<path d="M23.2885 77.7122C16.1005 81.7798 16.1005 88.4106 23.2885 92.4782C26.9104 94.5399 31.5907 95.5429 36.2713 95.5429C40.9518 95.5429 45.6882 94.5399 49.2544 92.4782C50.0345 92.0325 50.7589 91.531 51.3718 91.0295L44.9083 87.3519C44.4625 87.9091 43.7937 88.4663 43.0136 88.9121C41.1748 89.9708 38.723 90.4723 36.2713 90.4723C33.8195 90.4723 31.4237 89.9151 29.5292 88.9121C26.966 87.4633 26.186 85.3459 27.1333 83.5071V83.3957H27.2445L29.6962 78.7708L25.796 76.542C24.9045 76.8763 24.0686 77.3221 23.2885 77.7122Z" fill="#5F646B"/>
<path d="M30.9257 44.7259C28.2511 43.7229 26.4121 45.6732 26.9136 48.9608C27.1365 50.3538 27.6939 51.8025 28.474 53.0841C29.5884 54.8114 31.0928 56.2603 32.653 56.8175C35.3834 57.8204 37.1663 55.9259 36.6648 52.5826C36.6648 52.304 36.5535 52.0811 36.4978 51.8025C35.9406 49.4065 34.3803 47.0663 32.5973 45.6732C32.0401 45.2832 31.4829 44.9488 30.9257 44.7259Z" fill="white"/>
<path d="M27.1978 83.5069C26.1948 85.3457 27.0306 87.4631 29.5937 88.9118C31.4325 89.9705 33.884 90.472 36.3358 90.472C38.7875 90.472 41.2393 89.9148 43.0781 88.9118C43.914 88.466 44.5267 87.9088 44.9725 87.3516L29.7607 78.7148L27.1978 83.5069Z" fill="#373A3A"/>
<path d="M33.4319 35.0854C32.0946 34.5839 31.2028 35.5312 31.4257 37.2028C31.5929 38.5401 32.429 39.8774 33.4319 40.6575C33.7106 40.8804 33.989 41.0476 34.2676 41.1033C35.6049 41.6048 36.4963 40.6575 36.2734 38.9858C36.0506 37.3142 34.7692 35.5869 33.3762 35.0854H33.4319Z" fill="white"/>
<path d="M41.6788 52.8604C42.0131 54.4206 43.239 55.9807 44.5206 56.4265C45.8579 56.928 46.7494 55.9807 46.5265 54.3091C46.3036 52.6375 45.0219 50.8544 43.6289 50.4086C42.2916 49.9071 41.4001 50.8544 41.623 52.5261C41.623 52.6375 41.6231 52.7489 41.6788 52.8604Z" fill="white"/>
<path d="M46.9723 69.4656C46.6937 69.8557 46.5822 70.4686 46.638 71.193C46.8608 72.8646 48.1422 74.592 49.5352 75.0935C50.8725 75.595 51.7643 74.6477 51.5414 72.9761C51.3186 71.3045 49.9811 69.5771 48.6438 69.0756C47.9195 68.797 47.3065 68.9641 46.9165 69.4656H46.9723Z" fill="white"/>
<path d="M66.3639 99.8879C65.9738 99.8879 65.5282 99.7764 65.0824 99.4978L25.5202 77.0422L2.89761 64.2263C1.11454 63.2233 4.37115e-06 61.3289 4.37115e-06 59.3229V5.99775C4.37115e-06 4.82761 0.44578 3.88037 1.22588 3.49032C1.89453 3.15599 2.61898 3.21171 3.39908 3.65747L65.6952 38.9846C67.2554 39.8762 68.4813 42.1608 68.4813 44.1667V97.2133C68.4813 98.3834 68.0354 99.2749 67.311 99.7207C67.0324 99.8879 66.6982 99.9993 66.3639 99.9993V99.8879ZM26.1334 75.9835L65.6952 98.4391C65.6952 98.4391 66.3639 98.7734 66.6982 98.5505C67.0325 98.3834 67.1998 97.8261 67.1998 97.1575V44.111C67.1998 42.5508 66.2525 40.712 65.0824 40.0434L2.78606 4.71619C2.39601 4.4933 2.06178 4.43756 1.8389 4.60472C1.50457 4.77189 1.28165 5.3291 1.28165 5.99775V59.3229C1.28165 60.8831 2.11743 62.3318 3.51046 63.1119L26.1334 75.9278V75.9835Z" fill="#373A3A"/>
<path d="M66.9777 99.723C66.9777 99.723 66.5321 99.6116 66.4207 99.3887C66.2535 99.1101 66.3648 98.7201 66.6434 98.4972L72.0486 95.321C72.3829 95.1539 72.5499 94.5966 72.5499 93.928V40.8816C72.5499 39.3214 71.6026 37.4825 70.4324 36.8139L8.13628 1.4867C8.13628 1.4867 7.46767 1.15235 7.13335 1.37523L1.72839 4.55138C1.44979 4.71854 1.05972 4.60705 0.836835 4.32844C0.669671 4.04984 0.781161 3.65986 1.05977 3.43697L6.46472 0.260827C7.13337 -0.12922 7.91343 -0.0734755 8.69353 0.372293L70.9898 35.6995C72.55 36.591 73.7759 38.8198 73.7759 40.8258V93.8723C73.7759 95.0424 73.33 95.934 72.6056 96.3797L67.2009 99.5559C67.2009 99.5559 66.978 99.6673 66.8665 99.6673L66.9777 99.723Z" fill="#373A3A"/>
<path d="M36.2734 91.1419C33.6545 91.1419 31.1473 90.529 29.2528 89.4703C26.4668 87.9101 25.4636 85.4583 26.6338 83.2295L29.197 78.4374C29.3642 78.1031 29.7541 77.9917 30.0327 78.1588C30.367 78.326 30.4787 78.7161 30.3115 78.9947L27.7482 83.7867C26.9124 85.4026 27.7483 87.0742 29.8657 88.3001C31.593 89.2474 33.8774 89.8046 36.2734 89.8046C38.6694 89.8046 41.0098 89.2474 42.6815 88.3001C43.4058 87.9101 43.963 87.4086 44.4088 86.9071C44.6317 86.6285 45.0219 86.5727 45.3005 86.7956C45.5791 87.0185 45.6346 87.4086 45.4117 87.6872C44.9102 88.3001 44.1859 88.9131 43.3501 89.3588C41.4556 90.4175 38.948 91.0305 36.2734 91.0305V91.1419Z" fill="#373A3A"/>
<path d="M36.2742 96.1562C31.2593 96.1562 26.5233 95.0418 22.9571 93.0359C19.2795 90.9742 17.2734 88.1323 17.2734 85.1234C17.2734 82.1145 19.2795 79.2727 22.9571 77.211C23.7929 76.7652 24.6843 76.3195 25.5758 75.9851C25.9102 75.8737 26.3003 75.9852 26.4118 76.3195C26.5232 76.6539 26.4118 77.0439 26.0775 77.1553C25.2417 77.4896 24.4058 77.8797 23.6257 78.3255C20.3382 80.1643 18.5549 82.616 18.5549 85.1792C18.5549 87.7423 20.3382 90.1384 23.6257 91.9772C27.0247 93.8717 31.4822 94.9304 36.33 94.9304C41.1777 94.9304 45.6356 93.8717 49.0345 91.9772C49.7589 91.5314 50.4832 91.0856 51.0404 90.5841C51.319 90.3612 51.7089 90.4169 51.9318 90.6955C52.1547 90.9741 52.0992 91.3642 51.8206 91.5871C51.1519 92.1443 50.4274 92.6458 49.5916 93.0916C46.0255 95.0975 41.2891 96.2119 36.2742 96.2119V96.1562Z" fill="#373A3A"/>
<path d="M64.1356 94.8185C64.1356 94.8185 63.9127 94.8185 63.8013 94.7628L4.79283 61.3302C4.12418 60.9401 3.62256 59.8814 3.62256 59.0456V8.95227C3.62256 8.95227 3.73399 8.50655 3.95688 8.39511C4.17976 8.28366 4.40273 8.28366 4.5699 8.39511L63.5785 41.8835C64.2472 42.2735 64.8046 43.2765 64.8046 44.168V94.1499C64.8046 94.1499 64.8046 94.2613 64.8046 94.317C64.8046 94.5399 64.6371 94.7071 64.4699 94.8185C64.3585 94.8185 64.3028 94.8742 64.1914 94.8742L64.1356 94.8185ZM5.46145 60.2158L63.5227 93.1469V44.168C63.5227 43.6666 63.1328 43.1093 62.9657 42.9979L4.90421 10.0668V59.0456C4.90421 59.5471 5.29429 60.1043 5.46145 60.2158Z" fill="#373A3A"/>
<path d="M34.0444 57.7076C33.5429 57.7076 33.0412 57.5962 32.484 57.429C30.8124 56.8161 29.1965 55.3674 27.9706 53.4171C27.0791 52.0241 26.5219 50.5196 26.299 49.0709C26.0204 47.0649 26.4661 45.449 27.5805 44.5017C28.5278 43.7216 29.8094 43.6101 31.1468 44.1116C31.7597 44.3345 32.3727 44.6688 32.9856 45.1703C34.9359 46.6748 36.5518 49.1823 37.1647 51.634C37.2204 51.9126 37.276 52.1912 37.3317 52.4698C37.6103 54.4757 37.1647 56.1474 36.0502 57.039C35.493 57.4847 34.8245 57.7076 34.0444 57.7076ZM29.5867 45.1146C29.141 45.1146 28.695 45.226 28.3607 45.5047C27.6363 46.1176 27.3022 47.3435 27.5251 48.9036C27.6922 50.1852 28.2492 51.5225 29.0293 52.7484C30.088 54.42 31.5368 55.7017 32.9299 56.2032C33.8771 56.5375 34.7129 56.4818 35.2701 56.036C35.9944 55.4231 36.3289 54.1972 36.106 52.637C36.106 52.4141 36.0502 52.1912 35.9945 51.9126C35.493 49.7395 34.0444 47.4549 32.317 46.1734C31.8155 45.7833 31.3139 45.5047 30.8124 45.3375C30.4224 45.1703 30.0323 45.1146 29.698 45.1146H29.5867Z" fill="#373A3A"/>
<path d="M27.2469 46.563C27.2469 46.563 26.9128 46.5073 26.8013 46.3401L19.5019 38.5391C19.5019 38.5391 19.279 37.8705 19.5019 37.6476C19.7805 37.4247 20.1704 37.4247 20.3933 37.6476L27.6927 45.4486C27.6927 45.4486 27.9156 46.1172 27.6927 46.3401C27.5813 46.4516 27.414 46.5073 27.2469 46.5073V46.563Z" fill="#373A3A"/>
<path d="M24.4069 56.5377C24.4069 56.5377 24.0167 56.4263 23.9052 56.2591C23.6824 55.9805 23.7936 55.5904 24.0722 55.3675L28.1401 52.5258C28.4187 52.3029 28.8086 52.4143 29.0315 52.693C29.2544 52.9716 29.1431 53.3616 28.8645 53.5845L24.7966 56.4263C24.7966 56.4263 24.5741 56.5377 24.4069 56.5377Z" fill="#373A3A"/>
<path d="M32.6566 46.3401C32.6566 46.3401 32.6007 46.3401 32.545 46.3401C32.2107 46.2844 31.988 45.95 32.0437 45.6157L32.8793 40.6008C32.935 40.2665 33.2694 40.0436 33.6037 40.0994C33.938 40.1551 34.1611 40.4893 34.1054 40.8237L33.2694 45.8386C33.2694 46.1729 32.9352 46.3958 32.6566 46.3958V46.3401Z" fill="#373A3A"/>
<path d="M46.9169 70.1349C46.9169 70.1349 46.5267 70.0791 46.4152 69.9119L35.5499 56.4831C35.5499 56.4831 35.3825 55.8145 35.6611 55.5917C35.9397 55.3688 36.3299 55.4244 36.5528 55.703L47.4182 69.1318C47.4182 69.1318 47.5855 69.8005 47.3069 70.0234C47.1955 70.1348 47.0283 70.1906 46.9169 70.1906V70.1349Z" fill="#373A3A"/>
<path d="M41.6828 53.5285C41.6828 53.5285 41.5712 53.5285 41.5155 53.5285L36.3892 52.4141C36.0549 52.3584 35.8322 52.024 35.8879 51.634C35.9437 51.2439 36.2777 51.0768 36.6678 51.1325L41.7944 52.2469C42.073 52.3026 42.2957 52.5813 42.2957 52.8599C42.2957 53.1942 42.0171 53.4728 41.6828 53.4728V53.5285Z" fill="#373A3A"/>
<path d="M18.8366 39.4324C18.558 39.4324 18.2792 39.4324 17.9448 39.2652C16.3846 38.6523 14.9915 36.7578 14.7129 34.8633C14.5457 33.7489 14.8244 32.8016 15.4931 32.3001C16.0503 31.8543 16.7747 31.7429 17.6105 32.0772C19.1707 32.6344 20.6196 34.5846 20.8982 36.4791C21.0097 37.2035 20.898 37.8722 20.6751 38.3736C20.3408 39.0423 19.6721 39.4324 18.9478 39.4324H18.8366ZM18.3907 38.0951C18.8922 38.2623 19.2265 38.1508 19.3936 37.8165C19.5608 37.5379 19.5609 37.1478 19.5052 36.6463C19.2823 35.1976 18.1679 33.6374 17.0534 33.2473C16.7748 33.1359 16.4404 33.0802 16.2175 33.2473C15.9389 33.4702 15.8275 34.0274 15.939 34.6403C16.1618 36.0891 17.2763 37.6493 18.3907 38.0393V38.0951Z" fill="#373A3A"/>
<path d="M34.9944 41.8845C34.7158 41.8845 34.3817 41.8845 34.1031 41.7174C33.7687 41.6059 33.4344 41.383 33.1001 41.1601C31.93 40.2686 31.0382 38.7642 30.8154 37.3154C30.6482 36.201 30.9268 35.2537 31.5398 34.7522C32.097 34.3064 32.8214 34.195 33.6572 34.5294C35.2174 35.0866 36.6663 37.0368 36.9449 38.9313C37.112 40.0457 36.8334 40.993 36.2205 41.4945C35.8862 41.7731 35.4402 41.9402 34.9944 41.9402V41.8845ZM32.7658 35.588C32.7658 35.588 32.4872 35.588 32.3757 35.6995C32.0971 35.9223 31.9854 36.4238 32.0968 37.0925C32.264 38.2069 32.9884 39.4328 33.8799 40.1015C34.1028 40.2686 34.3257 40.38 34.5486 40.4915C34.8272 40.6029 35.1617 40.6586 35.4403 40.4915C35.7189 40.2686 35.8303 39.7671 35.7188 39.0985C35.496 37.6497 34.3815 36.0895 33.2671 35.6995C33.1557 35.6995 32.9884 35.588 32.8212 35.588H32.7658Z" fill="#373A3A"/>
<path d="M23.851 60.8288C23.5724 60.8288 23.2382 60.7731 22.9596 60.6617C21.3994 60.1045 19.9505 58.1543 19.6719 56.2598C19.5047 55.1453 19.7834 54.198 20.4521 53.6965C21.0093 53.2508 21.7337 53.1394 22.5695 53.4737C24.1297 54.0309 25.5783 55.9811 25.8569 57.8756C26.024 58.9901 25.7457 59.9374 25.077 60.4388C24.7427 60.7174 24.3525 60.8288 23.851 60.8288ZM23.4051 59.4916C23.4051 59.4916 24.0182 59.6588 24.2411 59.4916C24.5197 59.2687 24.631 58.7672 24.5196 58.0986C24.2967 56.6498 23.1823 55.0896 22.0679 54.6996C21.7893 54.5881 21.4551 54.5324 21.2323 54.6996C20.9536 54.9225 20.8419 55.4797 20.9534 56.0926C21.1763 57.5413 22.2907 59.1015 23.4051 59.4916Z" fill="#373A3A"/>
<path d="M50.2021 75.9272C50.2021 75.9272 49.6451 75.9272 49.3665 75.76C47.8063 75.2028 46.3574 73.2526 46.0788 71.3581C45.9673 70.4665 46.0789 69.6864 46.5246 69.1292C47.0818 68.4048 47.9734 68.1819 48.9764 68.5162C50.5366 69.0735 51.9855 71.0237 52.2641 72.9183C52.4312 74.0327 52.1525 74.9799 51.4839 75.4814C51.1496 75.76 50.7036 75.9272 50.2578 75.9272H50.2021ZM49.7008 74.5341C49.9794 74.6456 50.3136 74.7013 50.5922 74.5341C50.8708 74.3112 50.9825 73.8098 50.871 73.1411C50.6481 71.6924 49.5337 70.1322 48.4193 69.7421C48.085 69.6307 47.6947 69.5749 47.4718 69.9093C47.2489 70.1879 47.1934 70.6336 47.3048 71.1908C47.5277 72.5839 48.6421 74.1441 49.7565 74.5898L49.7008 74.5341Z" fill="#373A3A"/>
<path d="M45.1952 57.2068C44.9166 57.2068 44.5821 57.1511 44.3035 57.0396C42.8547 56.4824 41.462 54.8108 41.0719 53.0277C41.0719 52.9162 41.0719 52.7491 41.0161 52.6377C40.849 51.5233 41.1277 50.576 41.7963 50.0745C42.3535 49.6287 43.0779 49.5173 43.9137 49.8516C45.4739 50.4088 46.9225 52.359 47.2011 54.2536C47.3683 55.368 47.0896 56.3153 46.4209 56.8168C46.0866 57.0954 45.6967 57.2068 45.1952 57.2068ZM42.9662 50.9103C42.9662 50.9103 42.6876 50.9103 42.5761 51.0217C42.2975 51.2446 42.1862 51.8018 42.2976 52.4148C42.2976 52.5262 42.2976 52.5819 42.2976 52.6934C42.6319 54.0864 43.6906 55.4237 44.6936 55.8137C44.9722 55.9252 45.3066 55.9809 45.5295 55.8137C45.8081 55.5909 45.9195 55.0894 45.8081 54.4207C45.5852 52.972 44.4707 51.4118 43.3563 51.0217C43.2449 51.0217 43.0776 50.9103 42.9105 50.9103H42.9662Z" fill="#373A3A"/>
</svg>
